# Blender v2.80 (sub 75) OBJ File: 'GeneratorShed.blend'
# www.blender.org
mtllib GeneratorShed3.mtl
o Cube.005_Cube.008
v 4.800667 5.208172 0.525078
v 4.800667 6.212049 0.525078
v 4.800667 5.208172 -0.492045
v 4.800667 6.212049 -0.492045
v 4.880174 6.212049 -0.492045
v 4.880174 5.208172 -0.492045
v 4.880174 5.208172 0.525078
v 4.880174 6.212049 0.525078
vt 0.440622 0.578045
vt 0.440622 0.464193
vt 0.554474 0.464193
vt 0.554474 0.578045
vt 0.440622 0.578045
vt 0.554474 0.578045
vt 0.554474 0.464193
vt 0.440622 0.464193
vn 1.0000 0.0000 0.0000
vn -1.0000 0.0000 0.0000
vn 0.0000 -1.0000 0.0000
vn 0.0000 0.0000 1.0000
vn 0.0000 0.0000 -1.0000
vn 0.0000 1.0000 0.0000
usemtl Windows
s off
f 2/1/1 1/2/1 3/3/1 4/4/1
f 8/5/2 5/6/2 6/7/2 7/8/2
f 2/1/3 4/4/3 5/6/3 8/5/3
f 4/4/4 3/3/4 6/7/4 5/6/4
f 1/2/5 2/1/5 8/5/5 7/8/5
f 3/3/6 1/2/6 7/8/6 6/7/6
o Cube.027_Cube.034
v 4.800667 5.208172 3.296467
v 4.800667 6.212049 3.296467
v 4.800667 5.208172 2.272409
v 4.800667 6.212049 2.272409
v 4.880174 6.212049 2.272409
v 4.880174 5.208172 2.272409
v 4.880174 5.208172 3.296467
v 4.880174 6.212049 3.296467
vt 0.440622 0.578045
vt 0.440622 0.464193
vt 0.554474 0.464193
vt 0.554474 0.578045
vt 0.440622 0.578045
vt 0.554474 0.578045
vt 0.554474 0.464193
vt 0.440622 0.464193
vn 1.0000 0.0000 0.0000
vn -1.0000 0.0000 0.0000
vn 0.0000 -1.0000 0.0000
vn 0.0000 0.0000 1.0000
vn 0.0000 0.0000 -1.0000
vn 0.0000 1.0000 0.0000
usemtl Windows
s off
f 10/9/7 9/10/7 11/11/7 12/12/7
f 16/13/8 13/14/8 14/15/8 15/16/8
f 10/9/9 12/12/9 13/14/9 16/13/9
f 12/12/10 11/11/10 14/15/10 13/14/10
f 9/10/11 10/9/11 16/13/11 15/16/11
f 11/11/12 9/10/12 15/16/12 14/15/12
o Cube.029_Cube.036
v 4.800667 5.208172 -2.160598
v 4.800667 6.212049 -2.160598
v 4.800667 5.208172 -3.171001
v 4.800667 6.212049 -3.171001
v 4.880174 6.212049 -3.171001
v 4.880174 5.208172 -3.171001
v 4.880174 5.208172 -2.160598
v 4.880174 6.212049 -2.160598
vt 0.440622 0.578045
vt 0.440622 0.464193
vt 0.554474 0.464193
vt 0.554474 0.578045
vt 0.440622 0.578045
vt 0.554474 0.578045
vt 0.554474 0.464193
vt 0.440622 0.464193
vn 1.0000 0.0000 0.0000
vn -1.0000 0.0000 0.0000
vn 0.0000 -1.0000 0.0000
vn 0.0000 0.0000 1.0000
vn 0.0000 0.0000 -1.0000
vn 0.0000 1.0000 0.0000
usemtl Windows
s off
f 18/17/13 17/18/13 19/19/13 20/20/13
f 24/21/14 21/22/14 22/23/14 23/24/14
f 18/17/15 20/20/15 21/22/15 24/21/15
f 20/20/16 19/19/16 22/23/16 21/22/16
f 17/18/17 18/17/17 24/21/17 23/24/17
f 19/19/18 17/18/18 23/24/18 22/23/18
o Cube.031_Cube.038
v -4.873297 5.208172 0.525078
v -4.873297 6.212049 0.525078
v -4.873297 5.208172 -0.492045
v -4.873297 6.212049 -0.492045
v -4.793789 6.212049 -0.492045
v -4.793789 5.208172 -0.492045
v -4.793789 5.208172 0.525078
v -4.793789 6.212049 0.525078
vt 0.440622 0.578045
vt 0.440622 0.464193
vt 0.554474 0.464193
vt 0.554474 0.578045
vt 0.440622 0.578045
vt 0.554474 0.578045
vt 0.554474 0.464193
vt 0.440622 0.464193
vn 1.0000 0.0000 0.0000
vn -1.0000 0.0000 0.0000
vn 0.0000 -1.0000 0.0000
vn 0.0000 0.0000 1.0000
vn 0.0000 0.0000 -1.0000
vn 0.0000 1.0000 0.0000
usemtl Windows
s off
f 26/25/19 25/26/19 27/27/19 28/28/19
f 32/29/20 29/30/20 30/31/20 31/32/20
f 26/25/21 28/28/21 29/30/21 32/29/21
f 28/28/22 27/27/22 30/31/22 29/30/22
f 25/26/23 26/25/23 32/29/23 31/32/23
f 27/27/24 25/26/24 31/32/24 30/31/24
o Cube.033_Cube.040
v -4.873297 5.208172 3.296467
v -4.873297 6.212049 3.296467
v -4.873297 5.208172 2.272409
v -4.873297 6.212049 2.272409
v -4.793789 6.212049 2.272409
v -4.793789 5.208172 2.272409
v -4.793789 5.208172 3.296467
v -4.793789 6.212049 3.296467
vt 0.440622 0.578045
vt 0.440622 0.464193
vt 0.554474 0.464193
vt 0.554474 0.578045
vt 0.440622 0.578045
vt 0.554474 0.578045
vt 0.554474 0.464193
vt 0.440622 0.464193
vn 1.0000 0.0000 0.0000
vn -1.0000 0.0000 0.0000
vn 0.0000 -1.0000 0.0000
vn 0.0000 0.0000 1.0000
vn 0.0000 0.0000 -1.0000
vn 0.0000 1.0000 0.0000
usemtl Windows
s off
f 34/33/25 33/34/25 35/35/25 36/36/25
f 40/37/26 37/38/26 38/39/26 39/40/26
f 34/33/27 36/36/27 37/38/27 40/37/27
f 36/36/28 35/35/28 38/39/28 37/38/28
f 33/34/29 34/33/29 40/37/29 39/40/29
f 35/35/30 33/34/30 39/40/30 38/39/30
o Cube.035_Cube.042
v -4.873297 5.208172 -2.160598
v -4.873297 6.212049 -2.160598
v -4.873297 5.208172 -3.171001
v -4.873297 6.212049 -3.171001
v -4.793789 6.212049 -3.171001
v -4.793789 5.208172 -3.171001
v -4.793789 5.208172 -2.160598
v -4.793789 6.212049 -2.160598
vt 0.440622 0.578045
vt 0.440622 0.464193
vt 0.554474 0.464193
vt 0.554474 0.578045
vt 0.440622 0.578045
vt 0.554474 0.578045
vt 0.554474 0.464193
vt 0.440622 0.464193
vn 1.0000 0.0000 0.0000
vn -1.0000 0.0000 0.0000
vn 0.0000 -1.0000 0.0000
vn 0.0000 0.0000 1.0000
vn 0.0000 0.0000 -1.0000
vn 0.0000 1.0000 0.0000
usemtl Windows
s off
f 42/41/31 41/42/31 43/43/31 44/44/31
f 48/45/32 45/46/32 46/47/32 47/48/32
f 42/41/33 44/44/33 45/46/33 48/45/33
f 44/44/34 43/43/34 46/47/34 45/46/34
f 41/42/35 42/41/35 48/45/35 47/48/35
f 43/43/36 41/42/36 47/48/36 46/47/36
